{"title":"Green Zone TS XViD - IMAGiNE","uid":5444306,"size":1480055911,"categoryP":"video","categoryS":"movies","magnet":"?xt=urn:btih:ecccdecfe5ebbfbe0c7fef920910a822775743c7&amp;dn=Green+Zone+TS+XViD+-+IMAGiNE&amp;tr=udp%3A%2F%2Ftracker.openbittorrent.com%3A80&amp;tr=udp%3A%2F%2Fopen.demonii.com%3A1337&amp;tr=udp%3A%2F%2Ftracker.coppersurfer.tk%3A6969&amp;tr=udp%3A%2F%2Fexodus.desync.com%3A6969","seeders":1,"leechers":0,"uploader":".BONE.","files":3,"time":1268969095,"description":"#\n \n#\nRipper ...........: IMAGiNE                                        IMDB Rating.......:7.4/10                             \n#\nVideo Codec.......: XViD                                         Release Date......:18/03/10\n#\nAudio Codec.......:MP3                                           Theatre Date......:12/03/10\n#\nAudio Bitrate.....:128                                              Runtime.......:1h 45mn\n#\nSubtitles.........:ENG WHEN NEEDED                 Language..........:ENGLISH\n#\nResolution...... 704 x 288                                      IMDb URL..........:http://www.imdb.com/title/tt0947810/\n#\n \n#\n \n#\n \n#\n[color=yellow]DETAILS:[/color]\n#\n \n#\nVideo\n#\nID                               : 0\n#\nFormat                           : MPEG-4 Visual\n#\nFormat profile                   : Advanced Simple@L5\n#\nFormat settings, BVOP            : Yes\n#\nFormat settings, QPel            : No\n#\nFormat settings, GMC             : No warppoints\n#\nFormat settings, Matrix          : Default (MPEG)\n#\nMuxing mode                      : Packed bitstream\n#\nCodec ID                         : XVID\n#\nCodec ID/Hint                    : XviD\n#\nDuration                         : 1h 45mn\n#\nBit rate                         : 1 707 Kbps\n#\nWidth                            : 704 pixels\n#\nHeight                           : 288 pixels\n#\nDisplay aspect ratio             : 2.444\n#\nFrame rate                       : 23.976 fps\n#\nResolution                       : 24 bits\n#\nColorimetry                      : 4:2:0\n#\nScan type                        : Progressive\n#\nBits/(Pixel*Frame)               : 0.351\n#\nStream size                      : 1.26 GiB (93%)\n#\nWriting library                  : XviD 1.2.1 (UTC 2008-12-04)\n#\n \n#\nAudio\n#\nID                               : 1\n#\nFormat                           : MPEG Audio\n#\nFormat version                   : Version 1\n#\nFormat profile                   : Layer 3\n#\nCodec ID                         : 55\n#\nCodec ID/Hint                    : MP3\n#\nDuration                         : 1h 45mn\n#\nBit rate mode                    : Constant\n#\nBit rate                         : 128 Kbps\n#\nChannel(s)                       : 2 channels\n#\nSampling rate                    : 48.0 KHz\n#\nResolution                       : 16 bits\n#\nStream size                      : 96.5 MiB (7%)\n#\nAlignment                        : Split accross interleaves\n#\nInterleave, duration             : 42 ms (1.00 video frame)\n#\nInterleave, preload duration     : 500 ms\n#\n \n#\n \n#\n \n#\n[color=yellow]NOTES:[/color]\n#\n \n#\nIMAGiNE bringing you another release.....Green Zone.\n#\nHeres another sweet looking and sounding TS for ya all .....\n#\nSource was really nice but had a angle to it and colours were slightly off .....audio was nice clean,clear but low.\n#\nWork done,fixed angle then cropped and resize,then tweaked the colouring etc......\n#\nAudio was just given a bit of a boost nothing more needed.\n#\n \n#\nGot to pre warn everyone.....this time 99% sure no one walking past and no chair...however the only downside of this\n#\nis there is some pretty dark scenes and if we brightened it any more it would have looked worse so...\n#\nStill more than watchable until the r5 or retail comes out.\n#\nOh one more thing ,it's the actual film that has the shaky cam.....it's meant to look that way,which i personally believe makes\n#\nthe film look worse.... :(\n#\n \n#\nEnjoy.\n#\n \n#\n \n#\n[color=yellow]SCREENS:[/color]\n#\n \n#######\n \n#\n[color=yellow]GREETS:[/color]\n#\n \n#\nFLAWL3SS,ViSiON,FUSiON,Rx,SecretMyth,BirdFlu,ELEKTRI4KA\n#\nAnd to all the other p2p grps past and present\n#\n \n#\nSpecial thanks to Python-Lair for the server :)\n#\nAnd special thanks to supreme-speeds.com for the ripbox :)\n#\n \n#\n[COLOR=RED]Looking for these,syncers,cammers,silver supplier.....Have anything to offer????......\n#\nContact us &lt;a class=&quot;__cf_email__&quot; href=&quot;/cdn-cgi/l/email-protection&quot; data-cfemail=&quot;95fcf8f4f2fcfbf0f2e7fae0e5d5fde0e6fdf8f4fcf9bbf6faf8&quot;&gt;[email&amp;#160;protected]&lt;/a&gt;&lt;script cf-hash='f9e31' type=&quot;text/javascript&quot;&gt;\n/* &lt;![CDATA[ */!function(){try{var t=&quot;currentScript&quot;in document?document.currentScript:function(){for(var t=document.getElementsByTagName(&quot;script&quot;),e=t.length;e--;)if(t[e].getAttribute(&quot;cf-hash&quot;))return t[e]}();if(t&amp;&amp;t.previousSibling){var e,r,n,i,c=t.previousSibling,a=c.getAttribute(&quot;data-cfemail&quot;);if(a){for(e=&quot;&quot;,r=parseInt(a.substr(0,2),16),n=2;a.length-n;n+=2)i=parseInt(a.substr(n,2),16)^r,e+=String.fromCharCode(i);e=document.createTextNode(e),c.parentNode.replaceChild(e,c)}}}catch(u){}}();/* ]]&gt; */&lt;/script&gt;[/COLOR]","torrent":{"xt":"urn:btih:ecccdecfe5ebbfbe0c7fef920910a822775743c7","amp;dn":"Green+Zone+TS+XViD+-+IMAGiNE","amp;tr":["udp%3A%2F%2Ftracker.openbittorrent.com%3A80","udp%3A%2F%2Fopen.demonii.com%3A1337","udp%3A%2F%2Ftracker.coppersurfer.tk%3A6969","udp%3A%2F%2Fexodus.desync.com%3A6969"],"infoHash":"ecccdecfe5ebbfbe0c7fef920910a822775743c7","infoHashBuffer":{"type":"Buffer","data":[236,204,222,207,229,235,191,190,12,127,239,146,9,16,168,34,119,87,67,199]},"announce":[],"urlList":[]}}